<svg version="1.2" xmlns="http://www.w3.org/2000/svg" viewBox="0 0 839 595" width="839" height="595">
	<title>Logo Spolka</title>
	<defs>
		<linearGradient id="g1" x2="1" gradientUnits="userSpaceOnUse" gradientTransform="matrix(-20.674,180.893,-515.98,-58.969,355.204,128.202)">
			<stop offset="0" stop-color="#ff2e18"/>
			<stop offset="1" stop-color="#b31d12"/>
		</linearGradient>
		<linearGradient id="g2" x2="1" gradientUnits="userSpaceOnUse" gradientTransform="matrix(-15.28,133.698,-75.889,-8.673,161.473,203.713)">
			<stop offset="0" stop-color="#ffb434"/>
			<stop offset="1" stop-color="#ff7021"/>
		</linearGradient>
		<linearGradient id="g3" x2="1" gradientUnits="userSpaceOnUse" gradientTransform="matrix(-33.686,294.756,-195.538,-22.347,43.073,139.452)">
			<stop offset="0" stop-color="#ff2e18"/>
			<stop offset="1" stop-color="#b31d12"/>
		</linearGradient>
	</defs>
	<style>
		.s0 { fill: #ffffff } 
		.s1 { fill: #595b61 } 
		.s2 { fill: url(#g1) } 
		.s3 { fill: url(#g2) } 
		.s4 { fill: url(#g3) } 
	</style>
	<g id="Folder 1">
		<path id="Path 1" fill-rule="evenodd" class="s0" d="m291.9 190q0 1.9 0 3.9c0 132.5-56 239.9-125.1 239.9-69 0-125-107.4-125-239.9q0-2 0-3.9c36-18.4 78.9-29.1 125-29.1 46.2 0 89.1 10.7 125.1 29.1z"/>
		<path id="Path 5" class="s1" d="m362.3 372.6c0-4.7-3.7-5.9-6.7-7-2-0.8-3.5-1.4-3.5-3.2 0-1.3 1.2-2.4 3.2-2.4 1.6 0 3.6 0.8 4.6 1.4l1.7-4c-1.7-0.9-4.1-1.6-7-1.6-5.3 0-8.4 2.7-8.4 6.7 0 4.5 3.7 5.9 6.5 6.9 2.1 0.7 3.6 1.5 3.6 3.2 0 1.5-1.4 2.5-3.5 2.5-1.6 0-4.2-0.8-5.3-1.5l-1.9 4.4c1.7 0.9 4.6 1.6 7.4 1.6 6.1 0 9.3-2.8 9.3-7zm25.3-16.3h-6.4l-4.3 14.4c-0.5 1.6-0.8 3.6-0.8 3.6h-0.1c0 0-0.2-2-0.7-3.6l-4.3-14.4h-6.6l8.7 22.8-3.5 9.2h6.1zm18.4 16.2c0-4.6-3.7-5.9-6.7-7-2-0.7-3.5-1.4-3.5-3.1 0-1.4 1.2-2.4 3.2-2.4 1.6 0 3.6 0.7 4.6 1.3l1.8-3.9c-1.8-0.9-4.2-1.7-7.1-1.7-5.3 0-8.4 2.8-8.4 6.8 0 4.5 3.7 5.8 6.5 6.9 2.1 0.7 3.6 1.4 3.6 3.1 0 1.6-1.4 2.5-3.5 2.5-1.6 0-4.2-0.7-5.3-1.4l-1.9 4.4c1.7 0.9 4.6 1.6 7.4 1.6 6.1 0 9.3-2.8 9.3-7.1zm15.5 6.3v-4.8c-0.4 0.2-1 0.4-1.6 0.4-1.5 0-2.7-0.7-2.7-2.5v-11.3h4.3v-4.3h-4.3v-6.8l-5.7 1.7v5.1h-2.9v4.3h2.9v11.6c0 4.8 2.1 7.3 6.5 7.3 1.4 0 2.8-0.3 3.5-0.7zm23.3-12.7c0-6.2-3.5-10.4-9.8-10.4-6.7 0-10.6 5-10.6 12 0 7 4 11.9 11.5 11.9 3.3 0 6.6-0.7 8.5-1.6l-1.7-4.4c-1.6 0.9-4.1 1.5-6.3 1.5-3.4 0-5.9-1.7-6.4-5l14.8-2c0-0.7 0-1.3 0-2zm-5.6-1l-9.5 1.3c0-4.3 2.2-6.5 5.2-6.5 2.6 0 4.3 1.8 4.3 5.2zm41.7 14v-15.8c0-4.6-3-7.6-8.1-7.6-3.4 0-6.2 1.3-7.6 2.4-1.4-1.2-3.7-2.4-7.4-2.4-3.2 0-6.3 0.8-8.6 1.7v21.7h5.8v-18.2c0.8-0.3 1.8-0.5 3.2-0.5 2.4 0 3.9 1.2 3.9 3.2v15.5h5.9v-17.6c0.8-0.7 1.9-1.1 3.3-1.1 2.4 0 3.8 1.2 3.8 3.5v15.2zm26.1-22.8h-6.5l-4.3 14.3c-0.5 1.7-0.8 3.6-0.8 3.6h-0.1c0 0-0.2-1.9-0.7-3.6l-4.3-14.3h-6.5l8.6 22.8-3.5 9.1h6.1zm33.5 11.4c0-7.5-4-11.9-11.4-11.9-3.4 0-6.7 0.8-8.4 1.7v30.8h5.8v-9.4c0.7 0.3 2.1 0.5 3.3 0.5 7 0 10.7-4.7 10.7-11.7zm-5.8 0c0 4.3-1.9 7.3-5.5 7.3-1 0-2.2-0.2-2.7-0.4v-13.8c0.5-0.3 1.6-0.5 2.7-0.5 3.5 0 5.5 2.7 5.5 7.4zm29.9 0c0-7.5-4-11.9-11.4-11.9-3.4 0-6.6 0.8-8.3 1.7v30.8h5.7v-9.4c0.8 0.3 2.1 0.5 3.3 0.5 7 0 10.7-4.7 10.7-11.7zm-5.8 0c0 4.3-1.8 7.3-5.4 7.3-1.1 0-2.3-0.2-2.8-0.4v-13.8c0.6-0.3 1.7-0.5 2.7-0.5 3.6 0 5.5 2.7 5.5 7.4zm30.1 0c0-6.8-3.7-11.9-10.4-11.9-6.6 0-10.3 5.1-10.3 11.9 0 6.9 3.7 12 10.3 12 6.7 0 10.4-5.1 10.4-12zm-5.8 0c0 4.6-1.5 7.3-4.6 7.3-3 0-4.5-2.7-4.5-7.3 0-4.6 1.5-7.3 4.5-7.3 3.1 0 4.6 2.7 4.6 7.3zm25.5 11.5v-4.5h-9.3l9.1-18.4h-16.4v4.6h8.4l-9.2 18.3zm-5.3-28.9c0-1.6-1.4-3-3.2-3-1.7 0-3.2 1.4-3.2 3 0 1.7 1.5 3.1 3.2 3.1 1.8 0 3.2-1.4 3.2-3.1zm17.1 25.6c0-2-1.6-3.6-3.6-3.6-2 0-3.7 1.6-3.7 3.6 0 2 1.7 3.7 3.7 3.7 2 0 3.6-1.7 3.6-3.7zm30.6-3.3c0-4.6-3.6-5.9-6.7-7-2-0.7-3.4-1.4-3.4-3.1 0-1.4 1.1-2.4 3.2-2.4 1.5 0 3.5 0.7 4.5 1.3l1.8-3.9c-1.7-1-4.1-1.7-7-1.7-5.4 0-8.4 2.7-8.4 6.8 0 4.5 3.6 5.8 6.5 6.9 2 0.7 3.5 1.4 3.5 3.1 0 1.5-1.3 2.5-3.4 2.5-1.7 0-4.2-0.7-5.4-1.5l-1.8 4.4c1.7 0.9 4.5 1.7 7.4 1.7 6.1 0 9.2-2.8 9.2-7.1zm24-4.9c0-7.5-4-11.9-11.4-11.9-3.4 0-6.6 0.8-8.3 1.7v30.8h5.7v-9.4c0.8 0.3 2.1 0.5 3.4 0.5 7 0 10.6-4.7 10.6-11.7zm-5.8 0c0 4.3-1.8 7.3-5.4 7.3-1.1 0-2.3-0.2-2.8-0.4v-13.8c0.6-0.3 1.7-0.5 2.7-0.5 3.6 0 5.5 2.7 5.5 7.4zm16.4 8.2c0-2-1.6-3.6-3.6-3.6-2 0-3.6 1.6-3.6 3.6 0 2 1.6 3.7 3.6 3.7 2 0 3.6-1.7 3.6-3.7zm31.2 3.3v-4.5h-9.4l9.2-18.4h-16.5v4.6h8.4l-9.2 18.3zm34.7-11.5c0-6.8-3.7-11.9-10.4-11.9-6.7 0-10.3 5.1-10.3 11.9 0 6.9 3.6 12 10.3 12 6.7 0 10.4-5.1 10.4-12zm-5.8 0c0 4.6-1.5 7.3-4.6 7.3-3 0-4.6-2.7-4.6-7.3 0-4.6 1.6-7.3 4.6-7.3 3.1 0 4.6 2.7 4.6 7.3zm16.4 8.2c0-2-1.7-3.6-3.7-3.6-2 0-3.6 1.6-3.6 3.6 0 2 1.6 3.7 3.6 3.7 2 0 3.7-1.7 3.7-3.7zm24.6-8.2c0-6.8-3.7-11.9-10.4-11.9-6.7 0-10.3 5.1-10.3 11.9 0 6.9 3.6 12 10.3 12 6.7 0 10.4-5.1 10.4-12zm-5.8 0c0 4.6-1.5 7.3-4.6 7.3-3 0-4.6-2.7-4.6-7.3 0-4.6 1.6-7.3 4.6-7.3 3.1 0 4.6 2.7 4.6 7.3zm16.4 8.2c0-2-1.7-3.6-3.7-3.6-2 0-3.6 1.6-3.6 3.6 0 2 1.6 3.7 3.6 3.7 2 0 3.7-1.7 3.7-3.7z"/>
		<path id="Path 4" class="s2" d="m451.3 317.5v-51.4c0-15.1-9.9-24.6-26.3-24.6-11.2 0-20.3 4-25 7.6-4.3-3.9-11.8-7.6-23.8-7.6-10.6 0-20.4 2.4-28 5.4v70.6h18.7v-59.2c2.7-1.1 6.1-1.8 10.4-1.8 8 0 12.9 4 12.9 10.7v50.3h18.9v-57.2c2.6-2.4 6.3-3.8 11-3.8 7.6 0 12.3 4.2 12.3 11.5v49.5zm71.5-3.8v-45.7c0-19-10.6-26.5-29.6-26.5-10.8 0-21.4 2.8-27.6 5.4l4.7 12.7c5.2-2.2 13.8-4.4 20.8-4.4 8.6 0 13.9 2.9 13.9 10.6v3.8c-22.4 1.3-43.5 5.3-43.5 25.5 0 15.2 11.2 24 33.5 24 11.1 0 22.3-2.5 27.8-5.4zm-17.8-9.5c-1.9 0.9-6.6 1.5-10.6 1.5-9.8 0-15.3-4-15.3-11 0-11.1 12.2-12.4 25.9-13.1zm67.7 12.3v-15.6c-1.2 0.6-3.4 1.1-5.4 1.1-4.8 0-8.5-2-8.5-8.1v-36.7h13.9v-14h-13.9v-21.9l-18.5 5.3v16.6h-9.5v14h9.5v37.9c0 15.6 6.8 23.5 21.1 23.5 4.5 0 9.1-1 11.3-2.1zm74.5-38.2c0-22.7-13-36.1-32.3-36.1-4.4 0-9.8 1-13.1 2.5v-35.4h-18.8v104.4c6.1 2.9 16 5.4 26.4 5.4 23.7 0 37.8-12.9 37.8-40.8zm-18.8 1.5c0 16.4-7.2 24.6-17.9 24.6-3.5 0-6.9-0.7-8.7-1.6v-44.3c2.3-1.1 6-2 9.5-2 10.6 0 17.1 8.7 17.1 23.3zm90.9 33.9v-70.5h-18.7v58.8c-2.1 0.8-6.1 1.7-10.9 1.7-8.3 0-12.5-3.7-12.5-11.7v-48.8h-18.8v48.3c0 19.3 10.8 27.6 31.3 27.6 11.6 0 23.1-2.2 29.6-5.4zm75.4 0v-104.4h-18.9v34.7c-2.3-0.8-6.6-1.5-10.6-1.5-22.7 0-34.7 15.4-34.7 38.3 0 24.1 13.1 38.3 37 38.3 11.3 0 21.8-2.5 27.2-5.4zm-18.9-10.9c-1.5 0.9-5.4 1.6-8.7 1.6-11.5 0-17.9-8.9-17.9-23.9 0-14 6.2-23.8 17.9-23.8 3.3 0 7.2 0.7 8.7 1.4z"/>
		<path id="Path 3" class="s3" d="m291.9 190q0 1.9 0 3.9c0 85.8-23.5 161.1-58.8 203.5l-0.2-0.3c14.9-34.3 8.4-60-9.9-81.8 6.7 27.4-1.6 45.2-13.4 43.8-11.8-1.4-14.2-8.8-1.8-52.6 11-28-4.8-45.6-18.7-62.5-13.7-16.6-27-39.3-21.5-83.1 45.9 0.2 88.5 10.8 124.3 29.1z"/>
		<path id="Path 2" class="s4" d="m195 427.7q-3.8 1.7-7.6 2.9c-6.6-25.6-20.5-38.2-38.2-43.9-31.7-16.6-39.9-40.5-44.1-65-5.7 24.8-10.9 50.7 10.9 77.2 17.3 19.1 45.9 18.2 46 34.7-66.8-4.9-120.2-110.3-120.2-239.7q0-2 0-3.9c33.2-16.9 72.2-27.3 114.2-28.9-6.9 11-11.8 29-14.3 48.4-2.7 21.3 13.5 36.4-0.2 43.6-13.8 7.3-21.9-1.8-17.8-30.2-7 16.6-21 39.6-1.8 60.2 19.1 20.6 40.6 31 24 43.1-16.6 12.1-24.7-7.4-27.8-22.3-7.4 20.9 12.3 55.9 41.3 71.7 19.1 10.4 34.8 29.9 35.6 52.1z"/>
	</g>
</svg>