<svg viewBox="38.0822695035461 158.27 259.4354609929078 282.03" xmlns="http://www.w3.org/2000/svg" version="1.2" style="max-height: 500px" width="259.4354609929078" height="282.03">
	<title>Logo Spolka</title>
	<defs>
		<linearGradient gradientTransform="matrix(-15.28,133.698,-75.889,-8.673,161.473,203.713)" gradientUnits="userSpaceOnUse" x2="1" id="g1">
			<stop stop-color="#ffb434" offset="0"/>
			<stop stop-color="#ff7021" offset="1"/>
		</linearGradient>
		<linearGradient gradientTransform="matrix(-33.686,294.756,-195.538,-22.347,43.073,139.452)" gradientUnits="userSpaceOnUse" x2="1" id="g2">
			<stop stop-color="#ff2e18" offset="0"/>
			<stop stop-color="#b31d12" offset="1"/>
		</linearGradient>
	</defs>
	<style>
		.s0 { fill: #ffffff } 
		.s1 { fill: url(#g1) } 
		.s2 { fill: url(#g2) } 
	</style>
	<g id="Folder 1">
		<path d="m291.9 190q0 1.9 0 3.9c0 132.5-56 239.9-125.1 239.9-69 0-125-107.4-125-239.9q0-2 0-3.9c36-18.4 78.9-29.1 125-29.1 46.2 0 89.1 10.7 125.1 29.1z" class="s0" fill-rule="evenodd" id="Path 1"/>
		<path d="m291.9 190q0 1.9 0 3.9c0 85.8-23.5 161.1-58.8 203.5l-0.2-0.3c14.9-34.3 8.4-60-9.9-81.8 6.7 27.4-1.6 45.2-13.4 43.8-11.8-1.4-14.2-8.8-1.8-52.6 11-28-4.8-45.6-18.7-62.5-13.7-16.6-27-39.3-21.5-83.1 45.9 0.2 88.5 10.8 124.3 29.1z" class="s1" id="Path 3"/>
		<path d="m195 427.7q-3.8 1.7-7.6 2.9c-6.6-25.6-20.5-38.2-38.2-43.9-31.7-16.6-39.9-40.5-44.1-65-5.7 24.8-10.9 50.7 10.9 77.2 17.3 19.1 45.9 18.2 46 34.7-66.8-4.9-120.2-110.3-120.2-239.7q0-2 0-3.9c33.2-16.9 72.2-27.3 114.2-28.9-6.9 11-11.8 29-14.3 48.4-2.7 21.3 13.5 36.4-0.2 43.6-13.8 7.3-21.9-1.8-17.8-30.2-7 16.6-21 39.6-1.8 60.2 19.1 20.6 40.6 31 24 43.1-16.6 12.1-24.7-7.4-27.8-22.3-7.4 20.9 12.3 55.9 41.3 71.7 19.1 10.4 34.8 29.9 35.6 52.1z" class="s2" id="Path 2"/>
	</g>
</svg>